<?xml version="1.0" standalone="no"?>
<!DOCTYPE svg PUBLIC "-//W3C//DTD SVG 1.1//EN"
  "http://www.w3.org/Graphics/SVG/1.1/DTD/svg11.dtd">
<svg xmlns="http://www.w3.org/2000/svg" version="1.1" width="140" height="140">
  <polygon points="20,20 120,20 120,120 20,120" style="fill:#d0d0d0;stroke:#404040;stroke-width:1" />

  <line x1="20" y1="30" x2="120" y2="30" style="stroke:#404040;stroke-width:1" />
  <line x1="20" y1="70" x2="120" y2="70" style="stroke:#404040;stroke-width:1" />
  <line x1="20" y1="110" x2="120" y2="110" style="stroke:#404040;stroke-width:1" />
  <line x1="20" y1="150" x2="120" y2="150" style="stroke:#404040;stroke-width:1" />

  <line x1="30" y1="20" x2="30" y2="120" style="stroke:#404040;stroke-width:1" />
  <line x1="70" y1="20" x2="70" y2="120" style="stroke:#404040;stroke-width:1" />
  <line x1="110" y1="20" x2="110" y2="120" style="stroke:#404040;stroke-width:1" />
  <line x1="150" y1="20" x2="150" y2="120" style="stroke:#404040;stroke-width:1" />

  <polygon points="30,20 70,20 70,30 30,30" style="fill:#ffff00;stroke:#404040;stroke-width:1;opacity:1"  />

  <polygon points="70,20 110,20 110,30 70,30" style="fill:#ffff00;stroke:#404040;stroke-width:1;opacity:1"  />

  <polygon points="30,110 70,110 70,120 30,120" style="fill:#ffff00;stroke:#404040;stroke-width:1;opacity:1"  />

  <polygon points="70,110 110,110 110,120 70,120" style="fill:#ffff00;stroke:#404040;stroke-width:1;opacity:1"  />


</svg>

