<?xml version="1.0" standalone="no"?>
<!DOCTYPE svg PUBLIC "-//W3C//DTD SVG 1.1//EN"
  "http://www.w3.org/Graphics/SVG/1.1/DTD/svg11.dtd">
<svg xmlns="http://www.w3.org/2000/svg" version="1.1" width="210" height="120">

  <polygon points="30,30 90,30 90,90 30,90" style="fill:#d0d0d0;stroke:#404040;stroke-width:1" />

  <line x1="30" y1="60" x2="90" y2="60" style="stroke:#404040;stroke-width:1" />

  <line x1="60" y1="30" x2="60" y2="90" style="stroke:#404040;stroke-width:1" />

      <polygon points="30,30 60,30 60,60 30,60" style="fill:#ffff00;stroke:#404040;stroke-width:1;opacity:1"  />

      <polygon points="60,30 90,30 90,60 60,60" style="fill:#ffff00;stroke:#404040;stroke-width:1;opacity:1"  />

      <polygon points="30,60 60,60 60,90 30,90" style="fill:#ffff00;stroke:#404040;stroke-width:1;opacity:1"  />

      <polygon points="60,60 90,60 90,90 60,90" style="fill:#ffff00;stroke:#404040;stroke-width:1;opacity:1"  />




  <polygon points="120,30 180,30 180,90 120,90" style="fill:#d0d0d0;stroke:#404040;stroke-width:1" />

  <line x1="120" y1="60" x2="180" y2="60" style="stroke:#404040;stroke-width:1" />

  <line x1="150" y1="30" x2="150" y2="90" style="stroke:#404040;stroke-width:1" />

      <polygon points="120,30 150,30 150,60 120,60" style="fill:#ffffff;stroke:#404040;stroke-width:1;opacity:1"  />

      <polygon points="150,30 180,30 180,60 150,60" style="fill:#ffffff;stroke:#404040;stroke-width:1;opacity:1"  />

      <polygon points="120,60 150,60 150,90 120,90" style="fill:#ffffff;stroke:#404040;stroke-width:1;opacity:1"  />

      <polygon points="150,60 180,60 180,90 150,90" style="fill:#ffffff;stroke:#404040;stroke-width:1;opacity:1"  />



  <polygon points="40,46 48,38 48,43 72,43 72,38 80,46 72,54 72,49 48,49 48,54" style="stroke:black;fill:white;" />

  <polygon points="130,80 130,70 133,73 163,43 160,40 170,40 170,50 167,47 137,77 140,80" style="stroke:black;fill:white;" />

</svg>

