<?xml version="1.0" standalone="no"?>
<!DOCTYPE svg PUBLIC "-//W3C//DTD SVG 1.1//EN"
  "http://www.w3.org/Graphics/SVG/1.1/DTD/svg11.dtd">
<svg xmlns="http://www.w3.org/2000/svg" version="1.1" width="180" height="180">

  <polygon points="40,40 140,40 140,140 40,140" style="fill:#d0d0d0;stroke:#404040;stroke-width:1" />

  <line x1="40" y1="50" x2="140" y2="50" style="stroke:#404040;stroke-width:1" />
  <line x1="40" y1="90" x2="140" y2="90" style="stroke:#404040;stroke-width:1" />
  <line x1="40" y1="130" x2="140" y2="130" style="stroke:#404040;stroke-width:1" />

  <line x1="50" y1="40" x2="50" y2="140" style="stroke:#404040;stroke-width:1" />
  <line x1="90" y1="40" x2="90" y2="140" style="stroke:#404040;stroke-width:1" />
  <line x1="130" y1="40" x2="130" y2="140" style="stroke:#404040;stroke-width:1" />

      <polygon points="50,40 90,40 90,50 50,50" style="fill:#ffff00;stroke:#404040;stroke-width:1;opacity:1"  />

      <polygon points="130,50 140,50 140,90 130,90" style="fill:#ffff00;stroke:#404040;stroke-width:1;opacity:1"  />

      <polygon points="50,90 90,90 90,130 50,130" style="fill:#ffff00;stroke:#404040;stroke-width:1;opacity:1"  />

      <polygon points="90,130 130,130 130,140 90,140" style="fill:#ffff00;stroke:#404040;stroke-width:1;opacity:1"  />



</svg>

