<?xml version="1.0" standalone="no"?>
<!DOCTYPE svg PUBLIC "-//W3C//DTD SVG 1.1//EN"
  "http://www.w3.org/Graphics/SVG/1.1/DTD/svg11.dtd">
<svg xmlns="http://www.w3.org/2000/svg" version="1.1" width="210" height="120">

  <polygon points="30,30 90,30 90,90 30,90" style="fill:#d0d0d0;stroke:#404040;stroke-width:1" />

  <line x1="30" y1="60" x2="90" y2="60" style="stroke:#404040;stroke-width:1" />

  <line x1="60" y1="30" x2="60" y2="90" style="stroke:#404040;stroke-width:1" />

      <polygon points="30,30 60,30 60,60 30,60" style="fill:#ffff00;stroke:#404040;stroke-width:1;opacity:1"  />

      <polygon points="60,30 90,30 90,60 60,60" style="fill:#ffff00;stroke:#404040;stroke-width:1;opacity:1"  />

      <polygon points="30,60 60,60 60,90 30,90" style="fill:#ffff00;stroke:#404040;stroke-width:1;opacity:1"  />

      <polygon points="60,60 90,60 90,90 60,90" style="fill:#ffff00;stroke:#404040;stroke-width:1;opacity:1"  />




  <polygon points="120,30 180,30 180,90 120,90" style="fill:#d0d0d0;stroke:#404040;stroke-width:1" />

  <line x1="120" y1="60" x2="180" y2="60" style="stroke:#404040;stroke-width:1" />

  <line x1="150" y1="30" x2="150" y2="90" style="stroke:#404040;stroke-width:1" />

      <polygon points="120,30 150,30 150,60 120,60" style="fill:#ffffff;stroke:#404040;stroke-width:1;opacity:1"  />

      <polygon points="150,30 180,30 180,60 150,60" style="fill:#ffffff;stroke:#404040;stroke-width:1;opacity:1"  />

      <polygon points="120,60 150,60 150,90 120,90" style="fill:#ffffff;stroke:#404040;stroke-width:1;opacity:1"  />

      <polygon points="150,60 180,60 180,90 150,90" style="fill:#ffffff;stroke:#404040;stroke-width:1;opacity:1"  />



  <polygon points="130,76 138,68 138,73 162,73 162,68 170,76 162,84 162,79 138,79 138,84" style="stroke:black;fill:white;" />

  <polygon points="40,76 48,68 48,73 72,73 72,68 80,76 72,84 72,79 48,79 48,84" style="stroke:black;fill:white;" />

</svg>

