<?xml version="1.0" standalone="no"?>
<!DOCTYPE svg PUBLIC "-//W3C//DTD SVG 1.1//EN"
  "http://www.w3.org/Graphics/SVG/1.1/DTD/svg11.dtd">
<svg xmlns="http://www.w3.org/2000/svg" version="1.1" width="190" height="100">

  <polygon points="20,20 80,20 80,80 20,80" style="fill:#d0d0d0;stroke:#404040;stroke-width:1" />

  <line x1="20" y1="50" x2="80" y2="50" style="stroke:#404040;stroke-width:1" />
  <line x1="20" y1="80" x2="80" y2="80" style="stroke:#404040;stroke-width:1" />

  <line x1="50" y1="20" x2="50" y2="80" style="stroke:#404040;stroke-width:1" />
  <line x1="80" y1="20" x2="80" y2="80" style="stroke:#404040;stroke-width:1" />

      <polygon points="20,20 50,20 50,50 20,50" style="fill:#ffff00;stroke:#404040;stroke-width:1;opacity:1"  />

      <polygon points="50,20 80,20 80,50 50,50" style="fill:#ffff00;stroke:#404040;stroke-width:1;opacity:1"  />

      <polygon points="20,50 50,50 50,80 20,80" style="fill:#ffff00;stroke:#404040;stroke-width:1;opacity:1"  />

      <polygon points="50,50 80,50 80,80 50,80" style="fill:#ffff00;stroke:#404040;stroke-width:1;opacity:1"  />




  <polygon points="110,20 170,20 170,80 110,80" style="fill:#d0d0d0;stroke:#404040;stroke-width:1" />

  <line x1="110" y1="50" x2="170" y2="50" style="stroke:#404040;stroke-width:1" />
  <line x1="110" y1="80" x2="170" y2="80" style="stroke:#404040;stroke-width:1" />

  <line x1="140" y1="20" x2="140" y2="80" style="stroke:#404040;stroke-width:1" />
  <line x1="170" y1="20" x2="170" y2="80" style="stroke:#404040;stroke-width:1" />

      <polygon points="110,20 140,20 140,50 110,50" style="fill:#ffffff;stroke:#404040;stroke-width:1;opacity:1"  />

      <polygon points="140,20 170,20 170,50 140,50" style="fill:#ffffff;stroke:#404040;stroke-width:1;opacity:1"  />

      <polygon points="110,50 140,50 140,80 110,80" style="fill:#ffffff;stroke:#404040;stroke-width:1;opacity:1"  />

      <polygon points="140,50 170,50 170,80 140,80" style="fill:#ffffff;stroke:#404040;stroke-width:1;opacity:1"  />



  <polygon points="30,30 40,30 37,33 67,63 70,60 70,70 60,70 63,67 33,37 30,40" style="stroke:black;fill:white;" />

</svg>

