<?xml version="1.0" standalone="no"?>
<!DOCTYPE svg PUBLIC "-//W3C//DTD SVG 1.1//EN"
  "http://www.w3.org/Graphics/SVG/1.1/DTD/svg11.dtd">
<svg xmlns="http://www.w3.org/2000/svg" version="1.1" width="160" height="160">
  <polygon points="80,20 140,50 80,80 20,50" style="fill:#d0d0d0;stroke:#404040;stroke-width:1" />

  <line x1="50" y1="35" x2="110" y2="65" style="stroke:#404040;stroke-width:1" />
  <line x1="20" y1="50" x2="80" y2="80" style="stroke:#404040;stroke-width:1" />

  <line x1="110" y1="35" x2="50" y2="65" style="stroke:#404040;stroke-width:1" />
  <line x1="140" y1="50" x2="80" y2="80" style="stroke:#404040;stroke-width:1" />


<polygon points="20,50 80,80 80,140 20,110" style="fill:#d0d0d0;stroke:#404040;stroke-width:1" />

  <line x1="20" y1="80" x2="80" y2="110" style="stroke:#404040;stroke-width:1" />
  <line x1="20" y1="110" x2="80" y2="140" style="stroke:#404040;stroke-width:1" />

  <line x1="50" y1="65" x2="50" y2="125" style="stroke:#404040;stroke-width:1" />
  <line x1="80" y1="80" x2="80" y2="140" style="stroke:#404040;stroke-width:1" />

  <polygon points="50,65 80,80 80,110 50,95" style="fill:#ffffff;stroke:#404040;stroke-width:1;opacity:1"  />


<polygon points="80,80.0 140,50.0 140,110.0 80,140.0" style="fill:#d0d0d0;stroke:#404040;stroke-width:1" />

  <line x1="80" y1="110.0" x2="140" y2="80.0" style="stroke:#404040;stroke-width:1" />
  <line x1="80" y1="140.0" x2="140" y2="110.0" style="stroke:#404040;stroke-width:1" />

  <line x1="110" y1="65.0" x2="110" y2="125.0" style="stroke:#404040;stroke-width:1" />
  <line x1="140" y1="50.0" x2="140" y2="110.0" style="stroke:#404040;stroke-width:1" />



</svg>

