<?xml version="1.0" standalone="no"?>
<!DOCTYPE svg PUBLIC "-//W3C//DTD SVG 1.1//EN"
  "http://www.w3.org/Graphics/SVG/1.1/DTD/svg11.dtd">
<svg xmlns="http://www.w3.org/2000/svg" version="1.1" width="160" height="160">
  <polygon points="80,20 140,50 80,80 20,50" style="fill:#d0d0d0;stroke:#404040;stroke-width:1" />

  <line x1="60" y1="30" x2="120" y2="60" style="stroke:#404040;stroke-width:1" />
  <line x1="40" y1="40" x2="100" y2="70" style="stroke:#404040;stroke-width:1" />
  <line x1="20" y1="50" x2="80" y2="80" style="stroke:#404040;stroke-width:1" />

  <line x1="100" y1="30" x2="40" y2="60" style="stroke:#404040;stroke-width:1" />
  <line x1="120" y1="40" x2="60" y2="70" style="stroke:#404040;stroke-width:1" />
  <line x1="140" y1="50" x2="80" y2="80" style="stroke:#404040;stroke-width:1" />

  <polygon points="60,50 80,60 60,70 40,60" style="fill:#ff0000;stroke:#404040;stroke-width:1;opacity:1"  />

  <polygon points="80,60 100,70 80,80 60,70" style="fill:#ffffff;stroke:#404040;stroke-width:1;opacity:1"  />


  <polygon points="20,50 80,80 80,140 20,110" style="fill:#d0d0d0;stroke:#404040;stroke-width:1" />

  <line x1="20" y1="70" x2="80" y2="100" style="stroke:#404040;stroke-width:1" />
  <line x1="20" y1="90" x2="80" y2="120" style="stroke:#404040;stroke-width:1" />
  <line x1="20" y1="110" x2="80" y2="140" style="stroke:#404040;stroke-width:1" />

  <line x1="40" y1="60" x2="40" y2="120" style="stroke:#404040;stroke-width:1" />
  <line x1="60" y1="70" x2="60" y2="130" style="stroke:#404040;stroke-width:1" />
  <line x1="80" y1="80" x2="80" y2="140" style="stroke:#404040;stroke-width:1" />

  <polygon points="40,60 60,70 60,90 40,80" style="fill:#0000ff;stroke:#404040;stroke-width:1;opacity:1"  />

  <polygon points="60,70 80,80 80,100 60,90" style="fill:#ff0000;stroke:#404040;stroke-width:1;opacity:1"  />

  <polygon points="40,80 60,90 60,110 40,100" style="fill:#0000ff;stroke:#404040;stroke-width:1;opacity:0.4"  />

  <polygon points="40,100 60,110 60,130 40,120" style="fill:#0000ff;stroke:#404040;stroke-width:1;opacity:0.4"  />


  <polygon points="80,80.0 140,50.0 140,110.0 80,140.0" style="fill:#d0d0d0;stroke:#404040;stroke-width:1" />

  <line x1="80" y1="100.0" x2="140" y2="70.0" style="stroke:#404040;stroke-width:1" />
  <line x1="80" y1="120.0" x2="140" y2="90.0" style="stroke:#404040;stroke-width:1" />
  <line x1="80" y1="140.0" x2="140" y2="110.0" style="stroke:#404040;stroke-width:1" />

  <line x1="100" y1="70.0" x2="100" y2="130.0" style="stroke:#404040;stroke-width:1" />
  <line x1="120" y1="60.0" x2="120" y2="120.0" style="stroke:#404040;stroke-width:1" />
  <line x1="140" y1="50.0" x2="140" y2="110.0" style="stroke:#404040;stroke-width:1" />

  <polygon points="80,80.0 100,70.0 100,90.0 80,100.0" style="fill:#0000ff;stroke:#404040;stroke-width:1;opacity:1"  />

  <polygon points="100,90.0 120,80.0 120,100.0 100,110.0" style="fill:#ff0000;stroke:#404040;stroke-width:1;opacity:0.4"  />

  <polygon points="100,110.0 120,100.0 120,120.0 100,130.0" style="fill:#ff0000;stroke:#404040;stroke-width:1;opacity:0.4"  />


</svg>

