<?xml version="1.0" standalone="no"?>
<!DOCTYPE svg PUBLIC "-//W3C//DTD SVG 1.1//EN"
  "http://www.w3.org/Graphics/SVG/1.1/DTD/svg11.dtd">
<svg xmlns="http://www.w3.org/2000/svg" version="1.1" width="130" height="130">
  <polygon points="20,20 110,20 110,110 20,110" style="fill:#d0d0d0;stroke:#404040;stroke-width:1" />

  <line x1="20" y1="50" x2="110" y2="50" style="stroke:#404040;stroke-width:1" />
  <line x1="20" y1="80" x2="110" y2="80" style="stroke:#404040;stroke-width:1" />
  <line x1="20" y1="110" x2="110" y2="110" style="stroke:#404040;stroke-width:1" />

  <line x1="50" y1="20" x2="50" y2="110" style="stroke:#404040;stroke-width:1" />
  <line x1="80" y1="20" x2="80" y2="110" style="stroke:#404040;stroke-width:1" />
  <line x1="110" y1="20" x2="110" y2="110" style="stroke:#404040;stroke-width:1" />

  <polygon points="20,20 50,20 50,50 20,50" style="fill:#ffff00;stroke:#404040;stroke-width:1;opacity:1"  />

  <polygon points="50,20 80,20 80,50 50,50" style="fill:#ffff00;stroke:#404040;stroke-width:1;opacity:0.4"  />

  <polygon points="80,20 110,20 110,50 80,50" style="fill:#ffff00;stroke:#404040;stroke-width:1;opacity:1"  />

  <polygon points="20,50 50,50 50,80 20,80" style="fill:#ffff00;stroke:#404040;stroke-width:1;opacity:0.4"  />

  <polygon points="50,50 80,50 80,80 50,80" style="fill:#ffff00;stroke:#404040;stroke-width:1;opacity:0.4"  />

  <polygon points="80,50 110,50 110,80 80,80" style="fill:#ffff00;stroke:#404040;stroke-width:1;opacity:1"  />

  <polygon points="20,80 50,80 50,110 20,110" style="fill:#ffff00;stroke:#404040;stroke-width:1;opacity:0.4"  />

  <polygon points="50,80 80,80 80,110 50,110" style="fill:#ffff00;stroke:#404040;stroke-width:1;opacity:1"  />

  <polygon points="80,80 110,80 110,110 80,110" style="fill:#ffff00;stroke:#404040;stroke-width:1;opacity:0.4"  />



  <polygon points="41,43 33,35 41,27 41,32 88,32 88,27 96,35 88,43 88,38 41,38" style="stroke:black;fill:#ffffff;" />

  <polygon points="74,99 62,99 62,87 66,91 91,66 87,62 99,62 99,74 95,70 70,95" style="stroke:black;fill:#707070;" />

</svg>

