<?xml version="1.0" standalone="no"?>
<!DOCTYPE svg PUBLIC "-//W3C//DTD SVG 1.1//EN"
  "http://www.w3.org/Graphics/SVG/1.1/DTD/svg11.dtd">
<svg xmlns="http://www.w3.org/2000/svg" version="1.1" width="130" height="130">
  <polygon points="20,20 110,20 110,110 20,110" style="fill:#d0d0d0;stroke:#404040;stroke-width:1" />

  <line x1="20" y1="50" x2="110" y2="50" style="stroke:#404040;stroke-width:1" />
  <line x1="20" y1="80" x2="110" y2="80" style="stroke:#404040;stroke-width:1" />
  <line x1="20" y1="110" x2="110" y2="110" style="stroke:#404040;stroke-width:1" />

  <line x1="50" y1="20" x2="50" y2="110" style="stroke:#404040;stroke-width:1" />
  <line x1="80" y1="20" x2="80" y2="110" style="stroke:#404040;stroke-width:1" />
  <line x1="110" y1="20" x2="110" y2="110" style="stroke:#404040;stroke-width:1" />

  <polygon points="20,20 50,20 50,50 20,50" style="fill:#ffff00;stroke:#404040;stroke-width:1;opacity:1"  />

  <polygon points="50,20 80,20 80,50 50,50" style="fill:#ffff00;stroke:#404040;stroke-width:1;opacity:1"  />

  <polygon points="80,20 110,20 110,50 80,50" style="fill:#ffff00;stroke:#404040;stroke-width:1;opacity:0.4"  />

  <polygon points="20,50 50,50 50,80 20,80" style="fill:#ffff00;stroke:#404040;stroke-width:1;opacity:1"  />

  <polygon points="50,50 80,50 80,80 50,80" style="fill:#ffff00;stroke:#404040;stroke-width:1;opacity:0.4"  />

  <polygon points="80,50 110,50 110,80 80,80" style="fill:#ffff00;stroke:#404040;stroke-width:1;opacity:0.4"  />

  <polygon points="20,80 50,80 50,110 20,110" style="fill:#ffff00;stroke:#404040;stroke-width:1;opacity:1"  />

  <polygon points="50,80 80,80 80,110 50,110" style="fill:#ffff00;stroke:#404040;stroke-width:1;opacity:1"  />

  <polygon points="80,80 110,80 110,110 80,110" style="fill:#ffff00;stroke:#404040;stroke-width:1;opacity:1"  />



  <polygon points="62,35 68,35 68,43 68,82 73,82 65,90 57,82 62,82 62,43" style="stroke:black;fill:#707070;" />

  <polygon points="41,84 41,72 53,72 49,76 61,88 65,92 61,96 57,92 45,80" style="stroke:black;fill:#707070;" />

  <polygon points="37,66 33,62 37,58 49,46 45,42 57,42 57,54 53,50 41,62" style="stroke:black;fill:#707070;" />


  <polygon points="35,98 35,92 43,92 82,92 82,87 90,95 82,103 82,98 43,98" style="stroke:black;fill:#ffffff;" />

  <polygon points="32,35 38,35 38,43 38,82 43,82 35,90 27,82 32,82 32,43" style="stroke:black;fill:#ffffff;" />

  <polygon points="40,52 40,40 52,40 48,44 93,89 97,93 93,97 89,93 44,48" style="stroke:black;fill:#ffffff;" />

</svg>

