<?xml version="1.0" standalone="no"?>
<!DOCTYPE svg PUBLIC "-//W3C//DTD SVG 1.1//EN"
  "http://www.w3.org/Graphics/SVG/1.1/DTD/svg11.dtd">
<svg xmlns="http://www.w3.org/2000/svg" version="1.1" width="200" height="200">
  <!-- Up face -->
  <polygon points="80,20 180,70 120,100 20,50" style="fill:#f0f0f0;stroke:#404040;stroke-width:1" />
  <polygon points="60,110 80,120 60,130 40,120" style="fill:#f0f0f0;stroke:#404040;stroke-width:1" />
  <polygon points="140,130 160,140 140,150" style="fill:#f0f0f0;stroke:#404040;stroke-width:1" />

  <!-- Front face -->
  <polygon points="20,50 120,100 120,180 60,150 80,140 80,120 60,110 40,120 40,140 20,130" style="fill:#d0d0d0;stroke:#404040;stroke-width:1" />
  <polygon points="40,120 60,130 60,150 40,140" style="fill:#d0d0d0;stroke:#404040;stroke-width:1" />
  <polygon points="160,140 160,120 140,130" style="fill:#d0d0d0;stroke:#404040;stroke-width:1" />

  <!-- Right face -->
  <path d="M120,100 120,180 180,150 180,70z M140,130 160,120 160,140 140,150z" style="fill:#b0b0b0;stroke:#404040;stroke-width:1" />
  <polygon points="60,130 80,120 80,140 60,150" style="fill:#b0b0b0;stroke:#404040;stroke-width:1" />
</svg>

