<?xml version="1.0" standalone="no"?>
<!DOCTYPE svg PUBLIC "-//W3C//DTD SVG 1.1//EN"
  "http://www.w3.org/Graphics/SVG/1.1/DTD/svg11.dtd">
<svg xmlns="http://www.w3.org/2000/svg" version="1.1" width="140" height="180">
  <polygon points="20,20 120,20 120,80 20,80" style="fill:#d0d0d0;stroke:#404040;stroke-width:1" />

  <line x1="20" y1="40" x2="120" y2="40" style="stroke:#404040;stroke-width:1" />
  <line x1="20" y1="60" x2="120" y2="60" style="stroke:#404040;stroke-width:1" />
  <line x1="20" y1="80" x2="120" y2="80" style="stroke:#404040;stroke-width:1" />

  <line x1="40" y1="20" x2="40" y2="80" style="stroke:#404040;stroke-width:1" />
  <line x1="60" y1="20" x2="60" y2="80" style="stroke:#404040;stroke-width:1" />
  <line x1="80" y1="20" x2="80" y2="80" style="stroke:#404040;stroke-width:1" />
  <line x1="100" y1="20" x2="100" y2="80" style="stroke:#404040;stroke-width:1" />
  <line x1="120" y1="20" x2="120" y2="80" style="stroke:#404040;stroke-width:1" />

  <polygon points="20,20 40,20 40,40 20,40" style="fill:#0000ff;stroke:#404040;stroke-width:1;opacity:0.4"  />

  <polygon points="40,20 60,20 60,40 40,40" style="fill:#0000ff;stroke:#404040;stroke-width:1;opacity:0.4"  />

  <polygon points="60,20 80,20 80,40 60,40" style="fill:#0000ff;stroke:#404040;stroke-width:1;opacity:0.4"  />

  <polygon points="80,20 100,20 100,40 80,40" style="fill:#0000ff;stroke:#404040;stroke-width:1;opacity:0.4"  />

  <polygon points="100,20 120,20 120,40 100,40" style="fill:#0000ff;stroke:#404040;stroke-width:1;opacity:0.4"  />

  <polygon points="20,40 40,40 40,60 20,60" style="fill:#0000ff;stroke:#404040;stroke-width:1;opacity:0.4"  />

  <polygon points="40,40 60,40 60,60 40,60" style="fill:#00ff00;stroke:#404040;stroke-width:1;opacity:1"  />

  <polygon points="60,40 80,40 80,60 60,60" style="fill:#0000ff;stroke:#404040;stroke-width:1;opacity:0.4"  />

  <polygon points="80,40 100,40 100,60 80,60" style="fill:#00ff00;stroke:#404040;stroke-width:1;opacity:1"  />

  <polygon points="100,40 120,40 120,60 100,60" style="fill:#0000ff;stroke:#404040;stroke-width:1;opacity:0.4"  />

  <polygon points="20,60 40,60 40,80 20,80" style="fill:#0000ff;stroke:#404040;stroke-width:1;opacity:0.4"  />

  <polygon points="40,60 60,60 60,80 40,80" style="fill:#0000ff;stroke:#404040;stroke-width:1;opacity:0.4"  />

  <polygon points="60,60 80,60 80,80 60,80" style="fill:#0000ff;stroke:#404040;stroke-width:1;opacity:0.4"  />

  <polygon points="80,60 100,60 100,80 80,80" style="fill:#0000ff;stroke:#404040;stroke-width:1;opacity:0.4"  />

  <polygon points="100,60 120,60 120,80 100,80" style="fill:#0000ff;stroke:#404040;stroke-width:1;opacity:0.4"  />


  <polygon points="20,100 120,100 120,160 20,160" style="fill:#d0d0d0;stroke:#404040;stroke-width:1" />

  <line x1="20" y1="120" x2="120" y2="120" style="stroke:#404040;stroke-width:1" />
  <line x1="20" y1="140" x2="120" y2="140" style="stroke:#404040;stroke-width:1" />
  <line x1="20" y1="160" x2="120" y2="160" style="stroke:#404040;stroke-width:1" />

  <line x1="40" y1="100" x2="40" y2="160" style="stroke:#404040;stroke-width:1" />
  <line x1="60" y1="100" x2="60" y2="160" style="stroke:#404040;stroke-width:1" />
  <line x1="80" y1="100" x2="80" y2="160" style="stroke:#404040;stroke-width:1" />
  <line x1="100" y1="100" x2="100" y2="160" style="stroke:#404040;stroke-width:1" />
  <line x1="120" y1="100" x2="120" y2="160" style="stroke:#404040;stroke-width:1" />

  <polygon points="20,100 40,100 40,120 20,120" style="fill:#00ff00;stroke:#404040;stroke-width:1;opacity:0.4"  />

  <polygon points="40,100 60,100 60,120 40,120" style="fill:#00ff00;stroke:#404040;stroke-width:1;opacity:0.4"  />

  <polygon points="60,100 80,100 80,120 60,120" style="fill:#00ff00;stroke:#404040;stroke-width:1;opacity:0.4"  />

  <polygon points="80,100 100,100 100,120 80,120" style="fill:#00ff00;stroke:#404040;stroke-width:1;opacity:0.4"  />

  <polygon points="100,100 120,100 120,120 100,120" style="fill:#00ff00;stroke:#404040;stroke-width:1;opacity:0.4"  />

  <polygon points="20,120 40,120 40,140 20,140" style="fill:#00ff00;stroke:#404040;stroke-width:1;opacity:0.4"  />

  <polygon points="40,120 60,120 60,140 40,140" style="fill:#0000ff;stroke:#404040;stroke-width:1;opacity:1"  />

  <polygon points="60,120 80,120 80,140 60,140" style="fill:#00ff00;stroke:#404040;stroke-width:1;opacity:0.4"  />

  <polygon points="80,120 100,120 100,140 80,140" style="fill:#0000ff;stroke:#404040;stroke-width:1;opacity:1"  />

  <polygon points="100,120 120,120 120,140 100,140" style="fill:#00ff00;stroke:#404040;stroke-width:1;opacity:0.4"  />

  <polygon points="20,140 40,140 40,160 20,160" style="fill:#00ff00;stroke:#404040;stroke-width:1;opacity:0.4"  />

  <polygon points="40,140 60,140 60,160 40,160" style="fill:#00ff00;stroke:#404040;stroke-width:1;opacity:0.4"  />

  <polygon points="60,140 80,140 80,160 60,160" style="fill:#00ff00;stroke:#404040;stroke-width:1;opacity:0.4"  />

  <polygon points="80,140 100,140 100,160 80,160" style="fill:#00ff00;stroke:#404040;stroke-width:1;opacity:0.4"  />

  <polygon points="100,140 120,140 120,160 100,160" style="fill:#00ff00;stroke:#404040;stroke-width:1;opacity:0.4"  />


</svg>

