<?xml version="1.0" standalone="no"?>
<!DOCTYPE svg PUBLIC "-//W3C//DTD SVG 1.1//EN"
  "http://www.w3.org/Graphics/SVG/1.1/DTD/svg11.dtd">
<svg xmlns="http://www.w3.org/2000/svg" version="1.1" width="200" height="200">
  <!-- Up face -->
  <polygon points="80,20 180,70 120,100 20,50" style="fill:#f0f0f0;stroke:#404040;stroke-width:1" />
  <polygon points="40,80 60,90 40,100 20,90" style="fill:#f0f0f0;stroke:#404040;stroke-width:1" />
  <polygon points="80,100 100,110 80,120 60,110" style="fill:#f0f0f0;stroke:#404040;stroke-width:1" />
  <polygon points="120,140 140,150 120,160 100,150" style="fill:#f0f0f0;stroke:#404040;stroke-width:1" />

  <!-- Front face -->
  <polygon points="20,50 120,100 120,120 80,100 60,110 60,90 20,70" style="fill:#d0d0d0;stroke:#404040;stroke-width:1" />
  <polygon points="20,90 40,100 40,140 20,130" style="fill:#d0d0d0;stroke:#404040;stroke-width:1" />
  <polygon points="60,110 80,120 80,160 60,150" style="fill:#d0d0d0;stroke:#404040;stroke-width:1" />
  <polygon points="60,130 40,140 60,150" style="fill:#d0d0d0;stroke:#404040;stroke-width:1" />
  <polygon points="140,110 120,120 120,140 140,150" style="fill:#d0d0d0;stroke:#404040;stroke-width:1" />
  <polygon points="120,160 100,150 80,160 120,180" style="fill:#d0d0d0;stroke:#404040;stroke-width:1" />

  <!-- Right face -->
  <polygon points="180,70 180,150 120,180 120,160 140,150 140,110 120,120 120,100" style="fill:#b0b0b0;stroke:#404040;stroke-width:1" />
  <polygon points="40,100 60,90 60,130 40,140" style="fill:#b0b0b0;stroke:#404040;stroke-width:1" />
  <polygon points="80,120 100,110 120,120 120,140 80,160" style="fill:#b0b0b0;stroke:#404040;stroke-width:1" />

</svg>

