<?xml version="1.0" standalone="no"?>
<!DOCTYPE svg PUBLIC "-//W3C//DTD SVG 1.1//EN"
  "http://www.w3.org/Graphics/SVG/1.1/DTD/svg11.dtd">
<svg xmlns="http://www.w3.org/2000/svg" version="1.1" width="200" height="200">

  <polygon points="80,20 180,70 120,100 20,50" style="fill:#d0d0d0;stroke:#404040;stroke-width:1" />

  <line x1="60" y1="30" x2="160" y2="80" style="stroke:#404040;stroke-width:1" />
  <line x1="40" y1="40" x2="140" y2="90" style="stroke:#404040;stroke-width:1" />
  <line x1="20" y1="50" x2="120" y2="100" style="stroke:#404040;stroke-width:1" />

  <line x1="100" y1="30" x2="40" y2="60" style="stroke:#404040;stroke-width:1" />
  <line x1="120" y1="40" x2="60" y2="70" style="stroke:#404040;stroke-width:1" />
  <line x1="140" y1="50" x2="80" y2="80" style="stroke:#404040;stroke-width:1" />
  <line x1="160" y1="60" x2="100" y2="90" style="stroke:#404040;stroke-width:1" />
  <line x1="180" y1="70" x2="120" y2="100" style="stroke:#404040;stroke-width:1" />

      <polygon points="120,40 140,50 120,60 100,50" style="fill:#0000ff;stroke:#404040;stroke-width:1;opacity:0.4"  />

      <polygon points="100,50 120,60 100,70 80,60" style="fill:#0000ff;stroke:#404040;stroke-width:1;opacity:0.4"  />




  <polygon points="20,50 120,100 120,180 20,130" style="fill:#d0d0d0;stroke:#404040;stroke-width:1" />

  <line x1="20" y1="70" x2="120" y2="120" style="stroke:#404040;stroke-width:1" />
  <line x1="20" y1="90" x2="120" y2="140" style="stroke:#404040;stroke-width:1" />
  <line x1="20" y1="110" x2="120" y2="160" style="stroke:#404040;stroke-width:1" />
  <line x1="20" y1="130" x2="120" y2="180" style="stroke:#404040;stroke-width:1" />

  <line x1="40" y1="60" x2="40" y2="140" style="stroke:#404040;stroke-width:1" />
  <line x1="60" y1="70" x2="60" y2="150" style="stroke:#404040;stroke-width:1" />
  <line x1="80" y1="80" x2="80" y2="160" style="stroke:#404040;stroke-width:1" />
  <line x1="100" y1="90" x2="100" y2="170" style="stroke:#404040;stroke-width:1" />
  <line x1="120" y1="100" x2="120" y2="180" style="stroke:#404040;stroke-width:1" />




  <polygon points="120,100.0 180,70.0 180,150.0 120,180.0" style="fill:#d0d0d0;stroke:#404040;stroke-width:1" />

  <line x1="120" y1="120.0" x2="180" y2="90.0" style="stroke:#404040;stroke-width:1" />
  <line x1="120" y1="140.0" x2="180" y2="110.0" style="stroke:#404040;stroke-width:1" />
  <line x1="120" y1="160.0" x2="180" y2="130.0" style="stroke:#404040;stroke-width:1" />
  <line x1="120" y1="180.0" x2="180" y2="150.0" style="stroke:#404040;stroke-width:1" />

  <line x1="140" y1="90.0" x2="140" y2="170.0" style="stroke:#404040;stroke-width:1" />
  <line x1="160" y1="80.0" x2="160" y2="160.0" style="stroke:#404040;stroke-width:1" />
  <line x1="180" y1="70.0" x2="180" y2="150.0" style="stroke:#404040;stroke-width:1" />

      <polygon points="160,140.0 180,130.0 180,150.0 160,160.0" style="fill:#ff0000;stroke:#404040;stroke-width:1;opacity:1"  />


</svg>

