<?xml version="1.0" standalone="no"?>
<!DOCTYPE svg PUBLIC "-//W3C//DTD SVG 1.1//EN"
  "http://www.w3.org/Graphics/SVG/1.1/DTD/svg11.dtd">
<svg xmlns="http://www.w3.org/2000/svg" version="1.1" width="180" height="120">
  <polygon points="20,20 80,20 80,100 20,100" style="fill:#d0d0d0;stroke:#404040;stroke-width:1" />

  <line x1="20" y1="40" x2="80" y2="40" style="stroke:#404040;stroke-width:1" />
  <line x1="20" y1="60" x2="80" y2="60" style="stroke:#404040;stroke-width:1" />
  <line x1="20" y1="80" x2="80" y2="80" style="stroke:#404040;stroke-width:1" />
  <line x1="20" y1="100" x2="80" y2="100" style="stroke:#404040;stroke-width:1" />

  <line x1="40" y1="20" x2="40" y2="100" style="stroke:#404040;stroke-width:1" />
  <line x1="60" y1="20" x2="60" y2="100" style="stroke:#404040;stroke-width:1" />
  <line x1="80" y1="20" x2="80" y2="100" style="stroke:#404040;stroke-width:1" />

  <polygon points="20,20 40,20 40,40 20,40" style="fill:#ff8000;stroke:#404040;stroke-width:1;opacity:0.4"  />

  <polygon points="40,20 60,20 60,40 40,40" style="fill:#ff8000;stroke:#404040;stroke-width:1;opacity:0.4"  />

  <polygon points="60,20 80,20 80,40 60,40" style="fill:#ff8000;stroke:#404040;stroke-width:1;opacity:0.4"  />

  <polygon points="20,40 40,40 40,60 20,60" style="fill:#ff8000;stroke:#404040;stroke-width:1;opacity:0.4"  />

  <polygon points="40,40 60,40 60,60 40,60" style="fill:#ff8000;stroke:#404040;stroke-width:1;opacity:1"  />

  <polygon points="60,40 80,40 80,60 60,60" style="fill:#ff8000;stroke:#404040;stroke-width:1;opacity:0.4"  />

  <polygon points="20,60 40,60 40,80 20,80" style="fill:#ff8000;stroke:#404040;stroke-width:1;opacity:0.4"  />

  <polygon points="40,60 60,60 60,80 40,80" style="fill:#ff8000;stroke:#404040;stroke-width:1;opacity:1"  />

  <polygon points="60,60 80,60 80,80 60,80" style="fill:#ff8000;stroke:#404040;stroke-width:1;opacity:0.4"  />

  <polygon points="20,80 40,80 40,100 20,100" style="fill:#ff8000;stroke:#404040;stroke-width:1;opacity:0.4"  />

  <polygon points="40,80 60,80 60,100 40,100" style="fill:#ff8000;stroke:#404040;stroke-width:1;opacity:0.4"  />

  <polygon points="60,80 80,80 80,100 60,100" style="fill:#ff8000;stroke:#404040;stroke-width:1;opacity:0.4"  />


  <polygon points="100,20 160,20 160,100 100,100" style="fill:#d0d0d0;stroke:#404040;stroke-width:1" />

  <line x1="100" y1="40" x2="160" y2="40" style="stroke:#404040;stroke-width:1" />
  <line x1="100" y1="60" x2="160" y2="60" style="stroke:#404040;stroke-width:1" />
  <line x1="100" y1="80" x2="160" y2="80" style="stroke:#404040;stroke-width:1" />
  <line x1="100" y1="100" x2="160" y2="100" style="stroke:#404040;stroke-width:1" />

  <line x1="120" y1="20" x2="120" y2="100" style="stroke:#404040;stroke-width:1" />
  <line x1="140" y1="20" x2="140" y2="100" style="stroke:#404040;stroke-width:1" />
  <line x1="160" y1="20" x2="160" y2="100" style="stroke:#404040;stroke-width:1" />

  <polygon points="100,20 120,20 120,40 100,40" style="fill:#ff0000;stroke:#404040;stroke-width:1;opacity:0.4"  />

  <polygon points="120,20 140,20 140,40 120,40" style="fill:#ff0000;stroke:#404040;stroke-width:1;opacity:0.4"  />

  <polygon points="140,20 160,20 160,40 140,40" style="fill:#ff0000;stroke:#404040;stroke-width:1;opacity:0.4"  />

  <polygon points="100,40 120,40 120,60 100,60" style="fill:#ff0000;stroke:#404040;stroke-width:1;opacity:0.4"  />

  <polygon points="120,40 140,40 140,60 120,60" style="fill:#ff0000;stroke:#404040;stroke-width:1;opacity:1"  />

  <polygon points="140,40 160,40 160,60 140,60" style="fill:#ff0000;stroke:#404040;stroke-width:1;opacity:0.4"  />

  <polygon points="100,60 120,60 120,80 100,80" style="fill:#ff0000;stroke:#404040;stroke-width:1;opacity:0.4"  />

  <polygon points="120,60 140,60 140,80 120,80" style="fill:#ff0000;stroke:#404040;stroke-width:1;opacity:1"  />

  <polygon points="140,60 160,60 160,80 140,80" style="fill:#ff0000;stroke:#404040;stroke-width:1;opacity:0.4"  />

  <polygon points="100,80 120,80 120,100 100,100" style="fill:#ff0000;stroke:#404040;stroke-width:1;opacity:0.4"  />

  <polygon points="120,80 140,80 140,100 120,100" style="fill:#ff0000;stroke:#404040;stroke-width:1;opacity:0.4"  />

  <polygon points="140,80 160,80 160,100 140,100" style="fill:#ff0000;stroke:#404040;stroke-width:1;opacity:0.4"  />


</svg>

