<?xml version="1.0" standalone="no"?>
<!DOCTYPE svg PUBLIC "-//W3C//DTD SVG 1.1//EN"
  "http://www.w3.org/Graphics/SVG/1.1/DTD/svg11.dtd">
<svg xmlns="http://www.w3.org/2000/svg" version="1.1" width="270" height="250">
  <polygon points="170,31 192,99 135,140 78,99 100,31" style="fill:#d0d0d0;stroke:#404040;stroke-width:1" />
<polygon points="181,65 106,119 135,31 164,119 89,65" style="fill:none;stroke:#404040;stroke-width:1" />
  <polygon points="146,65 153,86 135,99 117,86 124,65" style="fill:#ffb000;stroke:#404040;stroke-width:1;opacity:0.4" />
  <polygon points="135,140 106,119 135,99 164,119" style="fill:#ffb000;stroke:#404040;stroke-width:1;opacity:1" />

 
  <polygon points="78,100 135,141 113,209 43,209 21,141" style="fill:#d0d0d0;stroke:#404040;stroke-width:1" />
<polygon points="107,121 78,209 49,121 124,175 32,175" style="fill:none;stroke:#404040;stroke-width:1" />
  <polygon points="78,141 96,154 89,175 67,175 60,154" style="fill:#8080ff;stroke:#404040;stroke-width:1;opacity:0.4" />
  <polygon points="124,175 89,175 96,154" style="fill:#8080ff;stroke:#404040;stroke-width:1;opacity:0.4" />
  <polygon points="78,209 67,175 89,175" style="fill:#8080ff;stroke:#404040;stroke-width:1;opacity:0.4" />
  <polygon points="32,175 60,154 67,175" style="fill:#8080ff;stroke:#404040;stroke-width:1;opacity:0.4" />
  <polygon points="135,141 124,175 96,154 107,121" style="fill:#8080ff;stroke:#404040;stroke-width:1;opacity:1" />
  <polygon points="113,209 78,209 89,175 124,175" style="fill:#8080ff;stroke:#404040;stroke-width:1;opacity:0.4" />
  <polygon points="43,209 32,175 67,175 78,209" style="fill:#8080ff;stroke:#404040;stroke-width:1;opacity:0.4" />

 
  <polygon points="192,100 249,141 227,209 157,209 135,141" style="fill:#d0d0d0;stroke:#404040;stroke-width:1" />
<polygon points="221,121 192,209 163,121 238,175 146,175" style="fill:none;stroke:#404040;stroke-width:1" />
  <polygon points="192,141 210,154 203,175 181,175 174,154" style="fill:#800080;stroke:#404040;stroke-width:1;opacity:0.4" />
  <polygon points="238,175 203,175 210,154" style="fill:#800080;stroke:#404040;stroke-width:1;opacity:0.4" />
  <polygon points="192,209 181,175 203,175" style="fill:#800080;stroke:#404040;stroke-width:1;opacity:0.4" />
  <polygon points="146,175 174,154 181,175" style="fill:#800080;stroke:#404040;stroke-width:1;opacity:0.4" />
  <polygon points="227,209 192,209 203,175 238,175" style="fill:#800080;stroke:#404040;stroke-width:1;opacity:0.4" />
  <polygon points="157,209 146,175 181,175 192,209" style="fill:#800080;stroke:#404040;stroke-width:1;opacity:0.4" />
  <polygon points="135,141 163,121 174,154 146,175" style="fill:#800080;stroke:#404040;stroke-width:1;opacity:1" />

 
</svg>

