<?xml version="1.0" standalone="no"?>
<!DOCTYPE svg PUBLIC "-//W3C//DTD SVG 1.1//EN"
  "http://www.w3.org/Graphics/SVG/1.1/DTD/svg11.dtd">
<svg xmlns="http://www.w3.org/2000/svg" version="1.1" width="250" height="320">
  <polygon points="172,31 194,99 137,140 80,99 102,31" style="fill:#d0d0d0;stroke:#404040;stroke-width:1" />
<polygon points="183,65 108,119 137,31 166,119 91,65" style="fill:none;stroke:#404040;stroke-width:1" />
  <polygon points="137,140 108,119 137,99 166,119" style="fill:#8080ff;stroke:#404040;stroke-width:1;opacity:1" />

  <text x="128" y="92" style="color:#404040;font-size:30px;font-family: Helvetica, Arial, sans-serif">U</text>
 
  <polygon points="80,100 137,141 115,209 45,209 23,141" style="fill:#d0d0d0;stroke:#404040;stroke-width:1" />
<polygon points="109,121 80,209 51,121 126,175 34,175" style="fill:none;stroke:#404040;stroke-width:1" />
  <polygon points="80,141 98,154 91,175 69,175 62,154" style="fill:#8080ff;stroke:#404040;stroke-width:1;opacity:0.4" />
  <polygon points="80,209 69,175 91,175" style="fill:#8080ff;stroke:#404040;stroke-width:1;opacity:0.4" />
  <polygon points="137,141 126,175 98,154 109,121" style="fill:#ffffff;stroke:#404040;stroke-width:1;opacity:1" />

  <text x="71" y="172" style="color:#404040;font-size:30px;font-family: Helvetica, Arial, sans-serif">F</text>
 
  <polygon points="115,209 137,277 80,318 23,277 45,209" style="fill:#d0d0d0;stroke:#404040;stroke-width:1" />
<polygon points="126,243 51,297 80,209 109,297 34,243" style="fill:none;stroke:#404040;stroke-width:1" />
  <polygon points="91,243 98,264 80,277 62,264 69,243" style="fill:#ffffff;stroke:#404040;stroke-width:1;opacity:0.4" />
  <polygon points="126,243 98,264 91,243" style="fill:#ffffff;stroke:#404040;stroke-width:1;opacity:0.4" />
  <polygon points="109,297 80,277 98,264" style="fill:#ffffff;stroke:#404040;stroke-width:1;opacity:0.4" />
  <polygon points="51,297 62,264 80,277" style="fill:#ffffff;stroke:#404040;stroke-width:1;opacity:0.4" />
  <polygon points="34,243 69,243 62,264" style="fill:#ffffff;stroke:#404040;stroke-width:1;opacity:0.4" />
  <polygon points="80,209 91,243 69,243" style="fill:#ffffff;stroke:#404040;stroke-width:1;opacity:0.4" />

  <text x="71" y="270" style="color:#404040;font-size:30px;font-family: Helvetica, Arial, sans-serif">D</text>
 
  <polygon points="173,168 230,209 208,277 138,277 116,209" style="fill:#d0d0d0;stroke:#404040;stroke-width:1" />
<polygon points="202,189 173,277 144,189 219,243 127,243" style="fill:none;stroke:#404040;stroke-width:1" />
  <polygon points="173,209 191,222 184,243 162,243 155,222" style="fill:#800080;stroke:#404040;stroke-width:1;opacity:0.4" />
  <polygon points="127,243 155,222 162,243" style="fill:#800080;stroke:#404040;stroke-width:1;opacity:0.4" />
  <polygon points="173,168 202,189 173,209 144,189" style="fill:#800080;stroke:#404040;stroke-width:1;opacity:1" />

  <text x="164" y="240" style="color:#404040;font-size:30px;font-family: Helvetica, Arial, sans-serif">R</text>
 
</svg>

