<?xml version="1.0" standalone="no"?>
<!DOCTYPE svg PUBLIC "-//W3C//DTD SVG 1.1//EN"
  "http://www.w3.org/Graphics/SVG/1.1/DTD/svg11.dtd">
<svg xmlns="http://www.w3.org/2000/svg" version="1.1" width="250" height="280">
  <polygon points="172,31 194,99 137,140 80,99 102,31" style="fill:#d0d0d0;stroke:#404040;stroke-width:1" />
<polygon points="183,65 108,119 137,31 166,119 91,65" style="fill:none;stroke:#404040;stroke-width:1" />
  <polygon points="108,119 119,86 137,99" style="fill:#800080;stroke:#404040;stroke-width:1;opacity:1" />

  <text x="128" y="92" style="color:#404040;font-size:30px;font-family: Helvetica, Arial, sans-serif">U</text>
 
  <polygon points="80,100 137,141 115,209 45,209 23,141" style="fill:#d0d0d0;stroke:#404040;stroke-width:1" />
<polygon points="109,121 80,209 51,121 126,175 34,175" style="fill:none;stroke:#404040;stroke-width:1" />
  <polygon points="80,141 98,154 91,175 69,175 62,154" style="fill:#8080ff;stroke:#404040;stroke-width:1;opacity:0.4" />
  <polygon points="109,121 98,154 80,141" style="fill:#8080ff;stroke:#404040;stroke-width:1;opacity:1" />
  <polygon points="80,209 69,175 91,175" style="fill:#8080ff;stroke:#404040;stroke-width:1;opacity:0.4" />
  <polygon points="115,209 80,209 91,175 126,175" style="fill:#8080ff;stroke:#404040;stroke-width:1;opacity:0.4" />
  <polygon points="45,209 34,175 69,175 80,209" style="fill:#8080ff;stroke:#404040;stroke-width:1;opacity:0.4" />

  <text x="71" y="172" style="color:#404040;font-size:30px;font-family: Helvetica, Arial, sans-serif">F</text>
 
  <polygon points="208,141 230,209 173,250 116,209 138,141" style="fill:#d0d0d0;stroke:#404040;stroke-width:1" />
<polygon points="219,175 144,229 173,141 202,229 127,175" style="fill:none;stroke:#404040;stroke-width:1" />
  <polygon points="184,175 191,196 173,209 155,196 162,175" style="fill:#800080;stroke:#404040;stroke-width:1;opacity:0.4" />
  <polygon points="144,229 155,196 173,209" style="fill:#800080;stroke:#404040;stroke-width:1;opacity:0.4" />
  <polygon points="173,250 144,229 173,209 202,229" style="fill:#800080;stroke:#404040;stroke-width:1;opacity:0.4" />
  <polygon points="116,209 127,175 155,196 144,229" style="fill:#800080;stroke:#404040;stroke-width:1;opacity:0.4" />

  <text x="164" y="202" style="color:#404040;font-size:30px;font-family: Helvetica, Arial, sans-serif">R</text>
 
</svg>

