<?xml version="1.0" standalone="no"?>
<!DOCTYPE svg PUBLIC "-//W3C//DTD SVG 1.1//EN"
  "http://www.w3.org/Graphics/SVG/1.1/DTD/svg11.dtd">
<svg xmlns="http://www.w3.org/2000/svg" version="1.1" width="200" height="200">
  <polygon points="100,20 180,60 100,100 20,60" style="fill:#d0d0d0;stroke:#404040;stroke-width:1" />

  <line x1="80" y1="30" x2="160" y2="70" style="stroke:#404040;stroke-width:1" />
  <line x1="60" y1="40" x2="140" y2="80" style="stroke:#404040;stroke-width:1" />
  <line x1="40" y1="50" x2="120" y2="90" style="stroke:#404040;stroke-width:1" />
  <line x1="20" y1="60" x2="100" y2="100" style="stroke:#404040;stroke-width:1" />

  <line x1="120" y1="30" x2="40" y2="70" style="stroke:#404040;stroke-width:1" />
  <line x1="140" y1="40" x2="60" y2="80" style="stroke:#404040;stroke-width:1" />
  <line x1="160" y1="50" x2="80" y2="90" style="stroke:#404040;stroke-width:1" />
  <line x1="180" y1="60" x2="100" y2="100" style="stroke:#404040;stroke-width:1" />

  <polygon points="100,20 120,30 100,40 80,30" style="fill:#ffff00;stroke:#404040;stroke-width:1;opacity:1"  />

  <polygon points="120,30 140,40 120,50 100,40" style="fill:#ffff00;stroke:#404040;stroke-width:1;opacity:1"  />

  <polygon points="140,40 160,50 140,60 120,50" style="fill:#ffff00;stroke:#404040;stroke-width:1;opacity:1"  />

  <polygon points="160,50 180,60 160,70 140,60" style="fill:#ffff00;stroke:#404040;stroke-width:1;opacity:1"  />

  <polygon points="80,30 100,40 80,50 60,40" style="fill:#ffff00;stroke:#404040;stroke-width:1;opacity:1"  />

  <polygon points="100,40 120,50 100,60 80,50" style="fill:#ffff00;stroke:#404040;stroke-width:1;opacity:1"  />

  <polygon points="120,50 140,60 120,70 100,60" style="fill:#ffff00;stroke:#404040;stroke-width:1;opacity:1"  />

  <polygon points="140,60 160,70 140,80 120,70" style="fill:#ffff00;stroke:#404040;stroke-width:1;opacity:1"  />

  <polygon points="60,40 80,50 60,60 40,50" style="fill:#ffff00;stroke:#404040;stroke-width:1;opacity:1"  />

  <polygon points="80,50 100,60 80,70 60,60" style="fill:#ffff00;stroke:#404040;stroke-width:1;opacity:1"  />

  <polygon points="100,60 120,70 100,80 80,70" style="fill:#ffff00;stroke:#404040;stroke-width:1;opacity:1"  />

  <polygon points="120,70 140,80 120,90 100,80" style="fill:#ffff00;stroke:#404040;stroke-width:1;opacity:1"  />

  <polygon points="40,50 60,60 40,70 20,60" style="fill:#ffff00;stroke:#404040;stroke-width:1;opacity:1"  />

  <polygon points="60,60 80,70 60,80 40,70" style="fill:#ffff00;stroke:#404040;stroke-width:1;opacity:1"  />

  <polygon points="80,70 100,80 80,90 60,80" style="fill:#ffff00;stroke:#404040;stroke-width:1;opacity:1"  />

  <polygon points="100,80 120,90 100,100 80,90" style="fill:#ffff00;stroke:#404040;stroke-width:1;opacity:1"  />


<polygon points="20,60 100,100 100,180 20,140" style="fill:#d0d0d0;stroke:#404040;stroke-width:1" />

  <line x1="20" y1="80" x2="100" y2="120" style="stroke:#404040;stroke-width:1" />
  <line x1="20" y1="100" x2="100" y2="140" style="stroke:#404040;stroke-width:1" />
  <line x1="20" y1="120" x2="100" y2="160" style="stroke:#404040;stroke-width:1" />
  <line x1="20" y1="140" x2="100" y2="180" style="stroke:#404040;stroke-width:1" />

  <line x1="40" y1="70" x2="40" y2="150" style="stroke:#404040;stroke-width:1" />
  <line x1="60" y1="80" x2="60" y2="160" style="stroke:#404040;stroke-width:1" />
  <line x1="80" y1="90" x2="80" y2="170" style="stroke:#404040;stroke-width:1" />
  <line x1="100" y1="100" x2="100" y2="180" style="stroke:#404040;stroke-width:1" />

  <polygon points="20,60 40,70 40,90 20,80" style="fill:#0000ff;stroke:#404040;stroke-width:1;opacity:1"  />

  <polygon points="40,70 60,80 60,100 40,90" style="fill:#0000ff;stroke:#404040;stroke-width:1;opacity:1"  />

  <polygon points="60,80 80,90 80,110 60,100" style="fill:#0000ff;stroke:#404040;stroke-width:1;opacity:1"  />

  <polygon points="80,90 100,100 100,120 80,110" style="fill:#0000ff;stroke:#404040;stroke-width:1;opacity:1"  />

  <polygon points="20,80 40,90 40,110 20,100" style="fill:#0000ff;stroke:#404040;stroke-width:1;opacity:1"  />

  <polygon points="40,90 60,100 60,120 40,110" style="fill:#0000ff;stroke:#404040;stroke-width:1;opacity:1"  />

  <polygon points="60,100 80,110 80,130 60,120" style="fill:#0000ff;stroke:#404040;stroke-width:1;opacity:1"  />

  <polygon points="80,110 100,120 100,140 80,130" style="fill:#0000ff;stroke:#404040;stroke-width:1;opacity:1"  />

  <polygon points="20,100 40,110 40,130 20,120" style="fill:#0000ff;stroke:#404040;stroke-width:1;opacity:1"  />

  <polygon points="40,110 60,120 60,140 40,130" style="fill:#0000ff;stroke:#404040;stroke-width:1;opacity:1"  />

  <polygon points="60,120 80,130 80,150 60,140" style="fill:#0000ff;stroke:#404040;stroke-width:1;opacity:1"  />

  <polygon points="80,130 100,140 100,160 80,150" style="fill:#0000ff;stroke:#404040;stroke-width:1;opacity:1"  />

  <polygon points="20,120 40,130 40,150 20,140" style="fill:#0000ff;stroke:#404040;stroke-width:1;opacity:1"  />

  <polygon points="40,130 60,140 60,160 40,150" style="fill:#0000ff;stroke:#404040;stroke-width:1;opacity:1"  />

  <polygon points="60,140 80,150 80,170 60,160" style="fill:#0000ff;stroke:#404040;stroke-width:1;opacity:1"  />

  <polygon points="80,150 100,160 100,180 80,170" style="fill:#0000ff;stroke:#404040;stroke-width:1;opacity:1"  />


<polygon points="100,100.0 180,60.0 180,140.0 100,180.0" style="fill:#d0d0d0;stroke:#404040;stroke-width:1" />

  <line x1="100" y1="120.0" x2="180" y2="80.0" style="stroke:#404040;stroke-width:1" />
  <line x1="100" y1="140.0" x2="180" y2="100.0" style="stroke:#404040;stroke-width:1" />
  <line x1="100" y1="160.0" x2="180" y2="120.0" style="stroke:#404040;stroke-width:1" />
  <line x1="100" y1="180.0" x2="180" y2="140.0" style="stroke:#404040;stroke-width:1" />

  <line x1="120" y1="90.0" x2="120" y2="170.0" style="stroke:#404040;stroke-width:1" />
  <line x1="140" y1="80.0" x2="140" y2="160.0" style="stroke:#404040;stroke-width:1" />
  <line x1="160" y1="70.0" x2="160" y2="150.0" style="stroke:#404040;stroke-width:1" />
  <line x1="180" y1="60.0" x2="180" y2="140.0" style="stroke:#404040;stroke-width:1" />

  <polygon points="100,100.0 120,90.0 120,110.0 100,120.0" style="fill:#ff0000;stroke:#404040;stroke-width:1;opacity:1"  />

  <polygon points="120,90.0 140,80.0 140,100.0 120,110.0" style="fill:#ff0000;stroke:#404040;stroke-width:1;opacity:1"  />

  <polygon points="140,80.0 160,70.0 160,90.0 140,100.0" style="fill:#ff0000;stroke:#404040;stroke-width:1;opacity:1"  />

  <polygon points="160,70.0 180,60.0 180,80.0 160,90.0" style="fill:#ff0000;stroke:#404040;stroke-width:1;opacity:1"  />

  <polygon points="100,120.0 120,110.0 120,130.0 100,140.0" style="fill:#ff0000;stroke:#404040;stroke-width:1;opacity:1"  />

  <polygon points="120,110.0 140,100.0 140,120.0 120,130.0" style="fill:#ff0000;stroke:#404040;stroke-width:1;opacity:1"  />

  <polygon points="140,100.0 160,90.0 160,110.0 140,120.0" style="fill:#ff0000;stroke:#404040;stroke-width:1;opacity:1"  />

  <polygon points="160,90.0 180,80.0 180,100.0 160,110.0" style="fill:#ff0000;stroke:#404040;stroke-width:1;opacity:1"  />

  <polygon points="100,140.0 120,130.0 120,150.0 100,160.0" style="fill:#ff0000;stroke:#404040;stroke-width:1;opacity:1"  />

  <polygon points="120,130.0 140,120.0 140,140.0 120,150.0" style="fill:#ff0000;stroke:#404040;stroke-width:1;opacity:1"  />

  <polygon points="140,120.0 160,110.0 160,130.0 140,140.0" style="fill:#ff0000;stroke:#404040;stroke-width:1;opacity:1"  />

  <polygon points="160,110.0 180,100.0 180,120.0 160,130.0" style="fill:#ff0000;stroke:#404040;stroke-width:1;opacity:1"  />

  <polygon points="100,160.0 120,150.0 120,170.0 100,180.0" style="fill:#ff0000;stroke:#404040;stroke-width:1;opacity:1"  />

  <polygon points="120,150.0 140,140.0 140,160.0 120,170.0" style="fill:#ff0000;stroke:#404040;stroke-width:1;opacity:1"  />

  <polygon points="140,140.0 160,130.0 160,150.0 140,160.0" style="fill:#ff0000;stroke:#404040;stroke-width:1;opacity:1"  />

  <polygon points="160,130.0 180,120.0 180,140.0 160,150.0" style="fill:#ff0000;stroke:#404040;stroke-width:1;opacity:1"  />



</svg>

