<?xml version="1.0" standalone="no"?>
<!DOCTYPE svg PUBLIC "-//W3C//DTD SVG 1.1//EN"
  "http://www.w3.org/Graphics/SVG/1.1/DTD/svg11.dtd">
<svg xmlns="http://www.w3.org/2000/svg" version="1.1" width="200" height="200">
  <polygon points="100,20 180,60 100,100 20,60" style="fill:#d0d0d0;stroke:#404040;stroke-width:1" />

  <line x1="60" y1="40" x2="140" y2="40" style="stroke:#404040;stroke-width:1" />
  <line x1="60" y1="80" x2="140" y2="80" style="stroke:#404040;stroke-width:1" />

  <line x1="60" y1="40" x2="60" y2="80" style="stroke:#404040;stroke-width:1" />
  <line x1="140" y1="40" x2="140" y2="80" style="stroke:#404040;stroke-width:1" />

    <polygon points="100,20 140,40 60,40" style="fill:#ffffff;stroke:#404040;stroke-width:1;opacity:1;" />

    <polygon points="140,40 180,60 140,80" style="fill:#ffffff;stroke:#404040;stroke-width:1;opacity:1;" />

    <polygon points="60,40 140,40 140,80 60,80" style="fill:#ffffff;stroke:#404040;stroke-width:1;opacity:1;" />

    <polygon points="60,40 60,80 20,60" style="fill:#ffffff;stroke:#404040;stroke-width:1;opacity:1;" />

    <polygon points="60,80 140,80 100,100" style="fill:#ffffff;stroke:#404040;stroke-width:1;opacity:1;" />

 
  <polygon points="20,60 100,100 100,180 20,140" style="fill:#d0d0d0;stroke:#404040;stroke-width:1" />

  <line x1="20" y1="100" x2="60" y2="80" style="stroke:#404040;stroke-width:1" />
  <line x1="60" y1="160" x2="100" y2="140" style="stroke:#404040;stroke-width:1" />

  <line x1="20" y1="100" x2="60" y2="160" style="stroke:#404040;stroke-width:1" />
  <line x1="60" y1="80" x2="100" y2="140" style="stroke:#404040;stroke-width:1" />

    <polygon points="20,60 60,80 20,100" style="fill:#ff0000;stroke:#404040;stroke-width:1;opacity:1;" />

    <polygon points="60,80 100,100 100,140" style="fill:#ff0000;stroke:#404040;stroke-width:1;opacity:1;" />

    <polygon points="60,80 100,140 60,160 20,100" style="fill:#ff0000;stroke:#404040;stroke-width:1;opacity:1;" />

    <polygon points="20,100 60,160 20,140" style="fill:#ff0000;stroke:#404040;stroke-width:1;opacity:1;" />

    <polygon points="100,140 100,180 60,160" style="fill:#ff0000;stroke:#404040;stroke-width:1;opacity:1;" />

 
  <polygon points="100,100 180,60 180,140 100,180" style="fill:#d0d0d0;stroke:#404040;stroke-width:1" />

  <line x1="100" y1="140" x2="140" y2="80" style="stroke:#404040;stroke-width:1" />
  <line x1="140" y1="160" x2="180" y2="100" style="stroke:#404040;stroke-width:1" />

  <line x1="100" y1="140" x2="140" y2="160" style="stroke:#404040;stroke-width:1" />
  <line x1="140" y1="80" x2="180" y2="100" style="stroke:#404040;stroke-width:1" />

    <polygon points="100,100 140,80 100,140" style="fill:#0000ff;stroke:#404040;stroke-width:1;opacity:1;" />

    <polygon points="140,80 180,60 180,100" style="fill:#0000ff;stroke:#404040;stroke-width:1;opacity:1;" />

    <polygon points="140,80 180,100 140,160 100,140" style="fill:#0000ff;stroke:#404040;stroke-width:1;opacity:1;" />

    <polygon points="100,140 140,160 100,180" style="fill:#0000ff;stroke:#404040;stroke-width:1;opacity:1;" />

    <polygon points="180,100 180,140 140,160" style="fill:#0000ff;stroke:#404040;stroke-width:1;opacity:1;" />

 
</svg>
