<?xml version="1.0" standalone="no"?>
<!DOCTYPE svg PUBLIC "-//W3C//DTD SVG 1.1//EN"
  "http://www.w3.org/Graphics/SVG/1.1/DTD/svg11.dtd">
<svg xmlns="http://www.w3.org/2000/svg" version="1.1" width="190" height="190">
  <polygon points="95,20 170,95 95,170 20,95" style="fill:#d0d0d0;stroke:#404040;stroke-width:1" />

  <line x1="70" y1="45" x2="120" y2="45" style="stroke:#404040;stroke-width:1" />
  <line x1="45" y1="70" x2="145" y2="70" style="stroke:#404040;stroke-width:1" />
  <line x1="20" y1="95" x2="170" y2="95" style="stroke:#404040;stroke-width:1" />
  <line x1="45" y1="120" x2="145" y2="120" style="stroke:#404040;stroke-width:1" />
  <line x1="70" y1="145" x2="120" y2="145" style="stroke:#404040;stroke-width:1" />

  <line x1="70" y1="45" x2="145" y2="120" style="stroke:#404040;stroke-width:1" />
  <line x1="45" y1="70" x2="120" y2="145" style="stroke:#404040;stroke-width:1" />

  <line x1="45" y1="120" x2="120" y2="45" style="stroke:#404040;stroke-width:1" />
  <line x1="70" y1="145" x2="145" y2="70" style="stroke:#404040;stroke-width:1" />



  <!-- shapes -->
  <polygon points="95,20 120,45 70,45" style="fill:#00ff00;stroke:#404040;stroke-width:1;opacity:0.4" />
 
  <polygon points="145,70 170,95 120,95" style="fill:#00ff00;stroke:#404040;stroke-width:1;opacity:0.4" />
 
  <polygon points="45,70 70,95 20,95" style="fill:#00ff00;stroke:#404040;stroke-width:1;opacity:0.4" />
 

  <polygon points="95,70 120,45 70,45" style="fill:#00ff00;stroke:#404040;stroke-width:1;opacity:0.4" />
 
  <polygon points="120,95 145,70 95,70" style="fill:#00ff00;stroke:#404040;stroke-width:1;opacity:0.4" />
 
  <polygon points="70,95 95,70 45,70" style="fill:#00ff00;stroke:#404040;stroke-width:1;opacity:0.4" />
 

  <polygon points="45,120 70,95 20,95" style="fill:#ffff00;stroke:#404040;stroke-width:1;opacity:0.4" />
 
  <polygon points="145,120 170,95 120,95" style="fill:#ffff00;stroke:#404040;stroke-width:1;opacity:0.4" />
 
  <polygon points="95,170 120,145 70,145" style="fill:#ffff00;stroke:#404040;stroke-width:1;opacity:0.4" />
 

  <polygon points="70,95 95,120 45,120" style="fill:#ffff00;stroke:#404040;stroke-width:1;opacity:0.4" />
 
  <polygon points="120,95 145,120 95,120" style="fill:#ffff00;stroke:#404040;stroke-width:1;opacity:0.4" />
 
  <polygon points="95,120 120,145 70,145" style="fill:#ffff00;stroke:#404040;stroke-width:1;opacity:0.4" />
 

  <polygon points="95,70 120,95 70,95" style="fill:#ffff00;stroke:#404040;stroke-width:1;opacity:1" />
 
  <polygon points="95,120 120,95 70,95" style="fill:#00ff00;stroke:#404040;stroke-width:1;opacity:1" />
 

</svg>
