<?xml version="1.0" standalone="no"?>
<!DOCTYPE svg PUBLIC "-//W3C//DTD SVG 1.1//EN"
  "http://www.w3.org/Graphics/SVG/1.1/DTD/svg11.dtd">
<svg xmlns="http://www.w3.org/2000/svg" version="1.1" width="180" height="180">
    <polygon points="74,30 106,30 90,90" style="fill:#d0d0d0;stroke:#404040;stroke-width:1;opacity:1;" />
  <polygon points="106,30 150,30 150,74 90,90" style="fill:#d0d0d0;stroke:#404040;stroke-width:1;opacity:1;" />
  <polygon points="150,74 150,106 90,90" style="fill:#d0d0d0;stroke:#404040;stroke-width:1;opacity:1;" />
  <polygon points="150,106 150,150 106,150 90,90" style="fill:#d0d0d0;stroke:#404040;stroke-width:1;opacity:1;" />
  <polygon points="106,150 74,150 90,90" style="fill:#d0d0d0;stroke:#404040;stroke-width:1;opacity:1;" />
  <polygon points="74,150 46,134 90,90" style="fill:#d0d0d0;stroke:#404040;stroke-width:1;opacity:1;" />
  <polygon points="46,134 30,106 90,90" style="fill:#d0d0d0;stroke:#404040;stroke-width:1;opacity:1;" />
  <polygon points="30,106 30,74 90,90" style="fill:#d0d0d0;stroke:#404040;stroke-width:1;opacity:1;" />
  <polygon points="30,74 46,46 90,90" style="fill:#d0d0d0;stroke:#404040;stroke-width:1;opacity:1;" />
  <polygon points="46,46 74,30 90,90" style="fill:#d0d0d0;stroke:#404040;stroke-width:1;opacity:1;" />

<line x1="106.07695154586736" y1="30" x2="73.92304845413264" y2="150" style="stroke:#404040;stroke-width:5" />

</svg>

