<?xml version="1.0" standalone="no"?>
<!DOCTYPE svg PUBLIC "-//W3C//DTD SVG 1.1//EN"
  "http://www.w3.org/Graphics/SVG/1.1/DTD/svg11.dtd">
<svg xmlns="http://www.w3.org/2000/svg" version="1.1" width="160" height="300">
    <polygon points="64,20 96,20 80,80" style="fill:#ffff00;stroke:#404040;stroke-width:1;opacity:1;" />
    <polygon points="96,20 140,20 140,64 80,80" style="fill:#d0d0d0;stroke:#404040;stroke-width:1;opacity:1;" />
  <polygon points="96,20 140,20 140,64 80,80" style="fill:#ffffff;stroke:#404040;stroke-width:1;opacity:0.4;" />
  <polygon points="140,64 140,96 80,80" style="fill:#d0d0d0;stroke:#404040;stroke-width:1;opacity:1;" />
    <polygon points="140,96 140,140 96,140 80,80" style="fill:#d0d0d0;stroke:#404040;stroke-width:1;opacity:1;" />
  <polygon points="140,96 140,140 96,140 80,80" style="fill:#ffffff;stroke:#404040;stroke-width:1;opacity:0.4;" />
  <polygon points="96,140 64,140 80,80" style="fill:#ffff00;stroke:#404040;stroke-width:1;opacity:1;" />
    <polygon points="64,140 20,140 20,96 80,80" style="fill:#d0d0d0;stroke:#404040;stroke-width:1;opacity:1;" />
  <polygon points="64,140 20,140 20,96 80,80" style="fill:#ffffff;stroke:#404040;stroke-width:1;opacity:0.4;" />
  <polygon points="20,96 20,64 80,80" style="fill:#d0d0d0;stroke:#404040;stroke-width:1;opacity:1;" />
    <polygon points="20,64 20,20 64,20 80,80" style="fill:#d0d0d0;stroke:#404040;stroke-width:1;opacity:1;" />
  <polygon points="20,64 20,20 64,20 80,80" style="fill:#ffffff;stroke:#404040;stroke-width:1;opacity:0.4;" />

<line x1="96.07695154586736" y1="20" x2="63.92304845413264" y2="140" style="stroke:#404040;stroke-width:5" />

    <polygon points="64,160 96,160 80,220" style="fill:#ffffff;stroke:#404040;stroke-width:1;opacity:1;" />
    <polygon points="96,160 140,160 140,204 80,220" style="fill:#d0d0d0;stroke:#404040;stroke-width:1;opacity:1;" />
  <polygon points="96,160 140,160 140,204 80,220" style="fill:#ffff00;stroke:#404040;stroke-width:1;opacity:0.4;" />
  <polygon points="140,204 140,236 80,220" style="fill:#d0d0d0;stroke:#404040;stroke-width:1;opacity:1;" />
    <polygon points="140,236 140,280 96,280 80,220" style="fill:#d0d0d0;stroke:#404040;stroke-width:1;opacity:1;" />
  <polygon points="140,236 140,280 96,280 80,220" style="fill:#ffff00;stroke:#404040;stroke-width:1;opacity:0.4;" />
  <polygon points="96,280 64,280 80,220" style="fill:#ffffff;stroke:#404040;stroke-width:1;opacity:1;" />
    <polygon points="64,280 20,280 20,236 80,220" style="fill:#d0d0d0;stroke:#404040;stroke-width:1;opacity:1;" />
  <polygon points="64,280 20,280 20,236 80,220" style="fill:#ffff00;stroke:#404040;stroke-width:1;opacity:0.4;" />
  <polygon points="20,236 20,204 80,220" style="fill:#d0d0d0;stroke:#404040;stroke-width:1;opacity:1;" />
    <polygon points="20,204 20,160 64,160 80,220" style="fill:#d0d0d0;stroke:#404040;stroke-width:1;opacity:1;" />
  <polygon points="20,204 20,160 64,160 80,220" style="fill:#ffff00;stroke:#404040;stroke-width:1;opacity:0.4;" />

<line x1="63.92304845413264" y1="160" x2="96.07695154586736" y2="280" style="stroke:#404040;stroke-width:5" />

</svg>

